<svg id="Layer_1" data-name="Layer 1" xmlns="http://www.w3.org/2000/svg" viewBox="0 0 943.88 685.63"><path d="M273.6,289.17A99,99,0,0,1,338,317.67l-26.63,26.64A61.54,61.54,0,0,0,273.6,327V289.17"/><path d="M253,290.19v38.46a61.54,61.54,0,1,0,58.33,103.56L338,458.84a99.23,99.23,0,1,1-85-168.65"/><polygon points="722.38 198.53 722.38 289.3 774.9 289.3 774.9 326.92 722.38 326.92 722.38 487.55 684.7 487.55 684.7 326.92 651.62 326.92 651.62 289.3 684.7 289.3 684.7 215.81 722.38 198.53"/><path d="M507.54,289.3h0V396.11a53.71,53.71,0,0,1-107.42,0V289.3H362.47V396.11a91.32,91.32,0,0,0,91.21,91.2h.25c2.22,0,4.39-.1,6.54-.25l.65,0a91.33,91.33,0,0,0,84-90.91V289.3Z"/><polygon points="617.11 198.66 617.12 487.55 579.43 487.55 579.43 215.94 617.11 198.66"/></svg>